<?xml version="1.0" encoding="utf-8"?>
<!-- Generator: Adobe Illustrator 16.0.0, SVG Export Plug-In . SVG Version: 6.00 Build 0)  -->
<!DOCTYPE svg PUBLIC "-//W3C//DTD SVG 1.1//EN" "http://www.w3.org/Graphics/SVG/1.1/DTD/svg11.dtd">
<svg version="1.1" id="Truyện_Nhiều_copy_1_" xmlns="http://www.w3.org/2000/svg" xmlns:xlink="http://www.w3.org/1999/xlink"
	 x="0px" y="0px" width="255px" height="48px" viewBox="0 0 255 48" enable-background="new 0 0 255 48" xml:space="preserve">
<g enable-background="new    ">
	<g>
		<path fill="#ffffff" fill-rule="evenodd"  clip-rule="evenodd" d="M0.24,31.24c1.135-0.03,1.125,1.181,1.802,1.688
			c0.915,0.687,1.591,1.672,2.965,1.459c0.703-0.108,1.438,0.005,2.154-0.038c0.847-0.051,1.666,0.023,2.37-0.792
			c0.47-0.544,1.359-0.775,2.103-1.023c2.148-0.717,3.439-2.44,4.834-4.031c1.264-1.442,2.722-2.807,3.595-4.468
			c0.641-1.219,1.611-2.461,1.363-4.142c-0.138-0.931,0.392-1.954,0.579-2.943c0.119-0.624,0.156-1.264,0.237-1.895
			c0.067-0.529,0.144-1.057,0.344-1.589c0.714,1.414,1.997,2.532,1.635,4.356c-0.19,0.962,0.03,1.999-0.076,2.987
			c-0.055,0.507-0.416,0.982-0.646,1.468c-0.049,0.104-0.156,0.184-0.197,0.29c-0.394,1.026-0.746,2.07-1.189,3.074
			c-0.138,0.313-0.574,0.48-0.782,0.778c-0.737,1.06-1.358,2.208-2.17,3.203c-0.763,0.937-1.632,1.828-2.598,2.547
			c-1.438,1.069-2.919,2.143-4.529,2.904c-2.886,1.366-6.009,1.499-9.12,0.995c-0.594-0.096-1.063-0.886-1.619-1.318
			c-0.321-0.249-0.701-0.422-1.055-0.63C0.24,33.16,0.24,32.2,0.24,31.24z"/>
		<path fill="#ffffff" fill-rule="evenodd" clip-rule="evenodd" d="M206.88,1.24c1.504,1.29,2.998,2.592,4.515,3.867
			c1.272,1.07,2.57,2.109,3.852,3.158c-1.406,1.814-1.404,1.807-3.405,1.219c-3.311-0.973-6.625-1.938-10.082-2.947
			c1.688-1.831,3.284-3.563,4.881-5.296C206.72,1.24,206.8,1.24,206.88,1.24z"/>
		<path fill="#ffffff" fill-rule="evenodd" clip-rule="evenodd" d="M132.888,23.816c0,1.809-0.027,3.402,0.012,4.995
			c0.02,0.789-0.458,0.808-1.01,0.808c-1.6,0-3.199-0.004-4.799,0.006c-0.474,0.003-0.947,0.047-1.604,0.081
			c0,1.442-0.035,2.822,0.041,4.197c0.01,0.185,0.57,0.479,0.881,0.486c1.919,0.046,3.84,0.062,5.758,0.008
			c0.851-0.024,1.134,0.282,1.104,1.102c-0.045,1.238,0.03,2.481-0.05,3.717c-0.019,0.296-0.446,0.808-0.691,0.811
			c-4.429,0.049-8.857,0.035-13.429,0.035c0-8.529,0-16.939,0-25.349c-0.085-0.031-0.17-0.063-0.255-0.094
			c-0.233,0.29-0.489,0.563-0.695,0.87c-2.475,3.681-4.964,7.354-7.389,11.067c-0.365,0.56-0.583,1.318-0.595,1.99
			c-0.059,3.358-0.027,6.719-0.027,10.078c0,0.43,0,0.858,0,1.364c-2.162,0-4.184,0-6.346,0c-0.02-0.414-0.057-0.836-0.058-1.259
			c-0.005-3.479,0.011-6.959-0.019-10.438c-0.004-0.493-0.09-1.066-0.351-1.463c-2.506-3.805-5.056-7.581-7.6-11.361
			c-0.148-0.22-0.346-0.406-0.708-0.823c-0.032,0.651-0.07,1.063-0.071,1.475c-0.004,4.279,0.023,8.559-0.018,12.838
			c-0.014,1.434-0.068,2.89-0.328,4.294c-0.691,3.74-2.944,6.113-6.633,7.074c-2.765,0.721-5.552,0.694-8.286-0.094
			c-3.899-1.123-6.326-4.352-6.453-8.563c-0.079-2.628-0.015-5.26-0.194-7.96c-0.928,2.715-2.434,4.774-5.567,5.524
			c2.613,3.625,5.134,7.124,7.8,10.824c-2.702,0-5.161,0.024-7.619-0.033c-0.279-0.007-0.623-0.425-0.81-0.729
			c-1.647-2.692-3.265-5.402-4.894-8.105c-0.221-0.366-0.459-0.722-0.967-1.026c0,3.236,0,6.473,0,9.805c-2.228,0-4.278,0-6.457,0
			c0-6.842,0-13.661,0-20.633c-1.513,0-2.906-0.056-4.287,0.054c-0.235,0.019-0.588,0.748-0.591,1.15
			c-0.039,5.759-0.027,11.518-0.027,17.277c0,0.706,0,1.413,0,2.184c-2.186,0-4.207,0-6.36,0c0-6.853,0-13.67,0-20.7
			c-1.471,0-2.817-0.044-4.159,0.015c-0.949,0.042-1.262-0.311-1.218-1.251c0.068-1.463,0.018-2.932,0.018-4.514
			c0.555,0,0.945,0,1.335,0c8.279,0,16.558-0.012,24.836,0.009c1.931,0.005,3.826,0.28,5.521,1.32
			c1.759,1.079,2.777,2.689,3.19,4.727c0.105-0.021,0.21-0.042,0.315-0.063c0-0.444-0.014-0.89,0.002-1.333
			c0.056-1.505,0.123-3.011,0.185-4.517c1.507-0.048,3.014-0.116,4.521-0.138c1.651-0.023,1.654-0.005,1.654,1.709
			c0.001,3.799-0.031,7.599,0.017,11.398c0.019,1.512,0.106,3.039,0.354,4.527c0.42,2.526,1.979,3.775,4.36,3.7
			c2.316-0.073,3.84-1.499,4.119-4.013c0.176-1.585,0.239-3.188,0.252-4.782c0.033-4.117,0.011-8.234,0.011-12.461
			c0.401-0.031,0.744-0.08,1.085-0.081c3.84-0.006,7.679,0.016,11.518-0.021c0.733-0.007,1.154,0.238,1.538,0.848
			c1.332,2.119,2.721,4.203,4.2,6.472c1.397-2.134,2.734-4.067,3.946-6.076c0.562-0.931,1.193-1.264,2.287-1.254
			c6.279,0.057,12.558,0.046,18.837,0.007c0.928-0.006,1.302,0.235,1.25,1.194c-0.063,1.156-0.049,2.32-0.007,3.479
			c0.031,0.846-0.336,1.123-1.143,1.107c-1.679-0.034-3.358-0.014-5.039-0.004c-0.473,0.003-0.946,0.047-1.518,0.078
			c0,1.48,0,2.89,0,4.434C127.959,23.816,130.337,23.816,132.888,23.816z M60.945,22.089c-0.002,0-0.004,0-0.005,0
			c0,0.24-0.022,0.482,0.004,0.72c0.095,0.882,0.205,1.763,0.31,2.645c1.128-0.156,2.312-0.149,3.371-0.51
			c1.263-0.431,1.714-1.563,1.692-2.89c-0.022-1.345-0.605-2.352-1.848-2.806c-0.846-0.309-1.784-0.374-2.685-0.519
			c-0.636-0.103-0.854,0.25-0.843,0.841C60.956,20.409,60.945,21.249,60.945,22.089z"/>
		<path fill="#ffffff" fill-rule="evenodd" clip-rule="evenodd" d="M199.773,40.004c-2.083,0-4.103,0-6.313,0c0-1.023,0.001-2.007,0-2.989
			c0-2.278,0.022-4.557-0.027-6.834c-0.007-0.337-0.349-0.953-0.545-0.958c-2.984-0.062-5.972-0.043-9.1-0.043
			c0,3.686,0,7.221,0,10.819c-2.162,0-4.182,0-6.288,0c0-8.799,0-17.562,0-26.387c2.073,0,4.094,0,6.244,0c0,3.364,0,6.701,0,10.147
			c3.254,0,6.381,0,9.657,0c0-3.34,0-6.678,0-10.112c2.194,0,4.244,0,6.372,0C199.773,22.385,199.773,31.121,199.773,40.004z"/>
		<path fill="#ffffff" fill-rule="evenodd" clip-rule="evenodd" d="M248.711,13.609c2.154,0,4.175,0,6.316,0c0.025,0.451,0.069,0.875,0.069,1.299
			c0.005,5.035,0.03,10.071-0.016,15.106c-0.012,1.308-0.105,2.648-0.412,3.912c-0.989,4.065-4.305,6.575-8.906,6.836
			c-2.364,0.134-4.714,0.043-6.936-0.931c-3.083-1.352-5.071-3.742-5.188-7.045c-0.225-6.339-0.065-12.691-0.065-19.138
			c1.871,0,3.92,0,6.132,0c0,0.426,0,0.851,0,1.276c0,4.276-0.035,8.553,0.021,12.829c0.018,1.345,0.16,2.717,0.467,4.024
			c0.499,2.121,2.042,3.174,4.226,3.113c2.116-0.059,3.602-1.287,4.002-3.425c0.184-0.974,0.271-1.979,0.276-2.971
			C248.726,23.582,248.711,18.667,248.711,13.609z"/>
		<path fill="#ffffff" fill-rule="evenodd" clip-rule="evenodd" d="M172.906,40.063c-2.03,0-3.981,0.021-5.932-0.023
			c-0.287-0.007-0.66-0.266-0.837-0.519c-5.964-8.506-11.908-17.026-17.853-25.546c-0.061-0.087-0.076-0.207-0.151-0.42
			c1.974,0,3.88-0.043,5.781,0.037c0.368,0.016,0.801,0.451,1.061,0.799c3.528,4.746,7.032,9.512,10.544,14.271
			c0.252,0.342,0.521,0.672,1.019,0.932c0-5.282,0-10.564,0-15.943c2.188,0,4.238,0,6.368,0
			C172.906,22.392,172.906,31.129,172.906,40.063z"/>
		<path fill="#ffffff" fill-rule="evenodd" clip-rule="evenodd" d="M162.326,40.064c-2.051,0-3.891,0.057-5.722-0.041
			c-0.442-0.023-0.975-0.468-1.27-0.864c-3.454-4.649-6.87-9.327-10.301-13.995c-0.277-0.378-0.579-0.738-1.101-1.4
			c-0.052,0.767-0.107,1.209-0.107,1.652c-0.007,4.436-0.029,8.872,0.014,13.308c0.01,1.011-0.234,1.445-1.335,1.365
			c-1.352-0.097-2.717-0.056-4.074-0.011c-0.742,0.025-0.977-0.275-0.976-0.979c0.012-8.192,0.011-16.385,0-24.578
			c-0.001-0.69,0.202-1.079,0.961-0.972c0.078,0.011,0.159,0,0.239,0.001c1.717,0.018,3.693-0.486,5.075,0.204
			c1.327,0.662,2.057,2.546,3.017,3.917c4.993,7.133,9.977,14.272,14.962,21.411C161.887,39.337,162.041,39.608,162.326,40.064z"/>
		<path fill="#ffffff" fill-rule="evenodd" clip-rule="evenodd" d="M221.533,19.399c0,1.486,0,2.871,0,4.388c2.398,0,4.775,0,7.354,0
			c0,1.861,0.027,3.598-0.042,5.333c-0.006,0.178-0.581,0.466-0.899,0.475c-1.638,0.05-3.277,0.02-4.916,0.031
			c-0.472,0.003-0.943,0.055-1.557,0.093c0,1.391-0.052,2.702,0.045,4.002c0.019,0.253,0.61,0.648,0.949,0.66
			c1.876,0.065,3.758,0.076,5.635,0.014c0.9-0.029,1.213,0.271,1.171,1.159c-0.056,1.196-0.018,2.397-0.016,3.597
			c0,0.53-0.085,0.971-0.779,0.916c-0.277-0.021-0.559,0-0.839,0c-4.114,0-8.229,0-12.444,0c0-8.837,0-17.602,0-26.446
			c0.354-0.023,0.701-0.066,1.048-0.066c3.958-0.005,7.916,0.025,11.873-0.024c0.917-0.012,1.197,0.295,1.157,1.165
			c-0.053,1.117-0.053,2.24-0.001,3.356c0.043,0.92-0.275,1.298-1.234,1.265c-1.677-0.057-3.357-0.021-5.036-0.01
			C222.532,19.31,222.063,19.364,221.533,19.399z"/>
		<path fill="#ffffff" fill-rule="evenodd" clip-rule="evenodd" d="M4.9,14.252c0.197,0.937,0.394,1.874,0.627,2.981
			c1.429-1.501,2.187-0.981,3.435-0.204c0.122-0.584,0.29-1.099,0.325-1.622c0.055-0.796,0.042-1.6,0.015-2.399
			c-0.038-1.113,0.346-1.705,1.587-1.694c0.483,0.004,0.965-0.449,1.457-0.672c0.242-0.11,0.51-0.159,0.758-0.257
			c0.746-0.294,1.473-0.644,2.235-0.884c0.478-0.151,1.038-0.271,1.494-0.151c0.201,0.053,0.333,0.739,0.331,1.136
			c-0.033,4.76-0.1,9.519-0.15,14.278c-0.012,1.096-0.414,1.928-1.42,2.462c-0.241,0.129-0.313,0.551-0.548,0.721
			c-1.063,0.775-2.153,1.516-3.241,2.256c-0.896,0.609-1.8,1.208-2.712,1.792c-0.154,0.099-0.369,0.136-0.558,0.144
			c-1.118,0.045-2.239,0.14-3.354,0.093c-2.555-0.108-3.755-2.452-2.49-4.721c0.259-0.464,0.461-1.014,0.496-1.538
			c0.112-1.674,0.123-3.355,0.193-5.033c0.046-1.09-0.099-2.175,0.641-3.194c0.346-0.477,0.197-1.312,0.274-1.985
			c0.055-0.484,0.113-0.968,0.17-1.452C4.609,14.29,4.755,14.271,4.9,14.252z"/>
		<path fill="#ffffff" fill-rule="evenodd" clip-rule="evenodd" d="M210.573,40.007c-2.089,0-4.108,0-6.221,0c0-8.79,0-17.525,0-26.358
			c2.042,0,4.093,0,6.221,0C210.573,22.387,210.573,31.124,210.573,40.007z"/>
		<path fill="#ffffff" fill-rule="evenodd" clip-rule="evenodd" d="M6.228,38.588c0.349-0.112,0.691-0.281,1.048-0.326
			c0.763-0.097,1.601,0.139,2.106-0.777c0.103-0.188,0.661-0.126,1.009-0.176c0.761-0.107,1.533,0.169,2.152-0.78
			c0.398-0.61,1.461-0.778,2.213-1.17c0.258-0.134,0.476-0.344,0.71-0.521c0.622-0.471,1.181-0.925,1.838,0.044
			c0.402,0.591,1.04,1.02,1.553,1.54c0.126,0.128,0.234,0.324,0.251,0.498c0.106,1.123,0.998,1.712,1.616,2.498
			c0.372,0.473,0.594,1.063,0.952,1.728c0.89-0.809,1.709-1.52,2.487-2.271c0.526-0.508,2.319-0.796,2.926-0.413
			c1.777,1.122,2.565,2.83,1.966,4.928c-0.353,1.232-1.397,2.084-2.501,2.759c-0.398,0.243-0.797,0.578-1.231,0.648
			c-0.602,0.098-1.454,0.231-1.816-0.086c-0.962-0.844-1.944-1.646-2.489-2.986c-0.545-1.339-1.76-2.393-2.588-3.633
			c-0.484-0.726-0.738-1.601-1.187-2.355c-0.314-0.529-0.77-0.979-1.192-1.436c-0.08-0.088-0.344-0.114-0.453-0.05
			c-0.837,0.498-1.647,1.04-2.485,1.535c-0.286,0.169-0.619,0.311-0.944,0.351c-1.087,0.133-2.131,0.093-3.171,0.796
			c-0.631,0.426-1.786,0.078-2.705,0.078C6.272,38.868,6.25,38.729,6.228,38.588z"/>
		<path fill="#ffffff" fill-rule="evenodd" clip-rule="evenodd" d="M217.021,10.066c1.607-1.295,3.206-2.604,4.841-3.867
			c0.168-0.13,0.628-0.096,0.814,0.045c1.646,1.248,3.262,2.538,5.005,3.909c-0.643,0.575-1.192,1.068-1.813,1.623
			c-0.951-0.768-1.919-1.467-2.787-2.273c-0.645-0.599-1.098-0.54-1.713,0.03c-0.844,0.781-1.775,1.467-2.727,2.241
			C218.096,11.198,217.588,10.663,217.021,10.066z"/>
		<path fill="#ffffff" fill-rule="evenodd" clip-rule="evenodd" d="M122.564,11.747c-0.582-0.554-1.07-1.019-1.696-1.616
			c1.778-1.442,3.498-2.838,5.292-4.293c1.776,1.39,3.531,2.763,5.418,4.242c-0.614,0.583-1.169,1.108-1.763,1.671
			c-1.26-1.01-2.437-1.953-3.644-2.919C124.957,9.814,123.811,10.74,122.564,11.747z"/>
		<path fill="#ffffff" fill-rule="evenodd" clip-rule="evenodd" d="M126.279,41.763c1.5,0.018,2.57,1.171,2.541,2.738
			c-0.029,1.553-1.157,2.668-2.659,2.63c-1.434-0.036-2.492-1.175-2.489-2.679C123.675,42.913,124.807,41.746,126.279,41.763z"/>
		<path fill="#ffffff" fill-rule="evenodd" clip-rule="evenodd" d="M23.13,28.43c-0.054,0.47,0.052,1.059-0.192,1.387
			c-0.691,0.931-1.672,1.658-1.739,2.966c-0.006,0.126-0.35,0.34-0.515,0.321c-0.167-0.019-0.458-0.314-0.43-0.425
			c0.128-0.52,0.277-1.057,0.547-1.513c0.473-0.8,1.038-1.545,1.566-2.312c0.117-0.17,0.239-0.337,0.359-0.506
			C22.86,28.376,22.996,28.403,23.13,28.43z"/>
		<path fill="#ffffff" fill-rule="evenodd" clip-rule="evenodd" d="M23.856,35.219c0.511,0.475,1.001,0.902,1.442,1.376
			c0.052,0.056-0.123,0.467-0.269,0.526c-0.173,0.071-0.486,0.01-0.639-0.116c-0.352-0.288-0.658-0.638-0.949-0.99
			c-0.083-0.101-0.121-0.333-0.062-0.437C23.462,35.437,23.657,35.36,23.856,35.219z"/>
		<path fill="#ffffff" fill-rule="evenodd" clip-rule="evenodd" d="M19.955,17.589c0,0.815,0,1.631,0,2.446c-0.103,0.002-0.205,0.003-0.308,0.005
			c0-0.817,0-1.634,0-2.452C19.75,17.589,19.853,17.589,19.955,17.589z"/>
	</g>
</g>
</svg>
